<?xml version="1.0" encoding="UTF-8" standalone="no"?>
<svg width="240px" height="180px" viewBox="0 0 240 180" version="1.1" xmlns="http://www.w3.org/2000/svg" xmlns:xlink="http://www.w3.org/1999/xlink">
    <defs>
        <linearGradient id="titleGrad" x1="0%" y1="0%" x2="100%" y2="0%">
            <stop offset="0%" stop-color="#EA4335" />
            <stop offset="50%" stop-color="#4285F4" />
            <stop offset="100%" stop-color="#34A853" />
        </linearGradient>
    </defs>
    <g stroke="none" stroke-width="1" fill="none" fill-rule="evenodd">
        <rect fill="#FFFFFF" width="240" height="180" rx="8"></rect>
        <g transform="translate(60, 40)">
            <g transform="translate(0, 0)">
                <path d="M120,90 L92.5,90 L92.5,43.55 L60,67.75 L27.5,43.55 L27.5,90 L0,90 L0,0 L6.65,0 L60,40 L113.35,0 L120,0 L120,90 Z" fill="#4285F4"></path>
                <path d="M27.5,43.55 L27.5,90 L0,90 L0,0 L6.65,0 L60,40 L60,67.75 L27.5,43.55 Z" fill="#EA4335"></path>
                <path d="M120,90 L92.5,90 L92.5,43.55 L60,67.75 L60,40 L113.35,0 L120,0 L120,90 Z" fill="#34A853"></path>
                <path d="M27.5,90 L0,90 L0,0 L27.5,0 L27.5,90 Z M92.5,90 L92.5,0 L120,0 L120,90 L92.5,90 Z" fill="#FBBC04"></path>
            </g>
        </g>
        <text x="120" y="150" text-anchor="middle" font-family="Arial, sans-serif" font-size="18" font-weight="bold" fill="url(#titleGrad)">
            Gmail Orchestrator
        </text>
    </g>
</svg>
