<?xml version="1.0" encoding="UTF-8" standalone="no"?>
<svg width="24px" height="18px" viewBox="0 0 24 18" version="1.1" xmlns="http://www.w3.org/2000/svg" xmlns:xlink="http://www.w3.org/1999/xlink">
    <g stroke="none" stroke-width="1" fill="none" fill-rule="evenodd">
        <g transform="translate(-432.000000, -243.000000)">
            <g transform="translate(432.000000, 243.000000)">
                <path d="M24,18 L18.5,18 L18.5,8.71 L12,13.55 L5.5,8.71 L5.5,18 L0,18 L0,0 L1.33,0 L12,8 L22.67,0 L24,0 L24,18 Z" fill="#4285F4"></path>
                <path d="M5.5,8.71 L5.5,18 L0,18 L0,0 L1.33,0 L12,8 L12,13.55 L5.5,8.71 Z" fill="#EA4335"></path>
                <path d="M24,18 L18.5,18 L18.5,8.71 L12,13.55 L12,8 L22.67,0 L24,0 L24,18 Z" fill="#34A853"></path>
                <path d="M5.5,18 L0,18 L0,0 L5.5,0 L5.5,18 Z M18.5,18 L18.5,0 L24,0 L24,18 L18.5,18 Z" fill="#FBBC04"></path>
            </g>
        </g>
    </g>
</svg>
